# xmcd
# 
# Track frame offsets:
#   150
#   12450
#   29550
#   45825
#   64500
#   80850
#   97125
#   112050
#   126975
#   142275
#   157200
#   174900
#   186375
#   204000
#   218025
#   234000
#   249600
#   263625
# 
# Disc length: 3732 seconds
# 
# Revision: 2
# Processed by: cddbd v1.5.2PL0 Copyright (c) Steve Scherf et al.
# Submitted via: Synapstar 1.0 
# 
DISCID=040e9212
DTITLE=Various Artist - P216
DYEAR=1900
DGENRE=Country
TTITLE0=Mccoy, Neal - Wink
TTITLE1=Mavericks - What A Crying Shame
TTITLE2=Keith, Toby - Should'Ve Been A Cowboy
TTITLE3=Raye, Collin - Little Rock
TTITLE4=Keith, Toby - Wish I Didn'T Know Now
TTITLE5=Mattea, Kathy - Walking Away A Winner
TTITLE6=Bogguss, Suzy - Drive South
TTITLE7=Foster, Radney - Just Call Me Lonesome
TTITLE8=Confederate Railroad - Queen Of Memphis
TTITLE9=Gibson Miller Band - Texas Tattoo
TTITLE10=Little Texas - God Blessed Texas
TTITLE11=Jackson,.Alan - Chatahoochie
TTITLE12=Jackson,.Alan - Tonight I Climbed The Wall
TTITLE13=Lawrence, Tracy - Alibis
TTITLE14=Mcbride, Martina - Independence Day
TTITLE15=Yoakam, Dwight - Ain'T That Lonely Yet
TTITLE16=Ketchum, Hal - Hearts Are Gonna Roll
TTITLE17=Loveless, Patty - Blame It On Your Heart
EXTD=MediaType: Karaoke CD+G Producer: GD-G Karaoke
EXTT0=
EXTT1=
EXTT2=
EXTT3=
EXTT4=
EXTT5=
EXTT6=
EXTT7=
EXTT8=
EXTT9=
EXTT10=
EXTT11=
EXTT12=
EXTT13=
EXTT14=
EXTT15=
EXTT16=
EXTT17=
PLAYORDER=
